<svg width="618" height="128" viewBox="0 0 618 128" fill="none" xmlns="http://www.w3.org/2000/svg">
<rect x="124.604" y="8.91762" width="119.082" height="119.082" rx="17.5109" fill="#852727"/>
<rect x="249.208" y="8.91762" width="119.082" height="119.082" rx="17.5109" fill="#852727"/>
<rect x="373.813" y="8.91762" width="119.082" height="119.082" rx="17.5109" fill="#852727"/>
<rect x="498.417" y="8.91762" width="119.082" height="119.082" rx="17.5109" fill="#852727"/>
<rect y="8.91762" width="119.082" height="119.082" rx="17.5109" fill="#852727"/>
<rect width="119.082" height="119.082" rx="17.5109" fill="#F8B7B7"/>
<path d="M90.1168 21.8604V30.8381H64.7226V97.222H54.3598V30.8381H28.9656V21.8604H90.1168Z" fill="#DB2929"/>
<rect x="124.604" y="8.91762" width="119.082" height="119.082" rx="17.5109" fill="#F8B7B7"/>
<path d="M150.569 30.778H162.471L184.12 66.9967L205.769 30.778H217.722L189.25 75.7693V106.14H179.041V75.7693L150.569 30.778Z" fill="#DB2929"/>
<rect x="498.417" y="1.52588e-05" width="119.082" height="119.082" rx="17.5109" fill="#F8B7B7"/>
<path d="M524.381 21.8604H536.283L557.932 58.0791L579.582 21.8604H591.535L563.063 66.8516V97.222H552.854V66.8516L524.381 21.8604Z" fill="#DB2929"/>
<rect x="249.208" y="1.52588e-05" width="119.082" height="119.082" rx="17.5109" fill="#F8B7B7"/>
<path d="M280.611 21.8604H314.521C321.224 21.8604 326.628 23.7585 330.732 27.5548C334.836 31.3169 336.888 36.6181 336.888 43.4582C336.888 49.3408 335.059 54.4709 331.399 58.8486C327.74 63.1922 322.114 65.3639 314.521 65.3639H290.82V97.222H280.611V21.8604ZM326.577 43.5095C326.577 37.969 324.525 34.2069 320.421 32.2233C318.163 31.163 315.068 30.6329 311.135 30.6329H290.82V56.7453H311.135C315.718 56.7453 319.429 55.7706 322.268 53.8211C325.14 51.8717 326.577 48.4345 326.577 43.5095Z" fill="#DB2929"/>
<rect x="373.813" y="1.52588e-05" width="119.082" height="119.082" rx="17.5109" fill="#F8B7B7"/>
<path d="M405.215 21.8604H439.125C445.829 21.8604 451.232 23.7585 455.336 27.5548C459.441 31.3169 461.493 36.6181 461.493 43.4582C461.493 49.3408 459.663 54.4709 456.003 58.8486C452.344 63.1922 446.718 65.3639 439.125 65.3639H415.424V97.222H405.215V21.8604ZM451.181 43.5095C451.181 37.969 449.129 34.2069 445.025 32.2233C442.768 31.163 439.672 30.6329 435.739 30.6329H415.424V56.7453H435.739C440.322 56.7453 444.033 55.7706 446.872 53.8211C449.745 51.8717 451.181 48.4345 451.181 43.5095Z" fill="#DB2929"/>
</svg>
